<!DOCTYPE svg PUBLIC "-//W3C//DTD SVG 1.1//EN" "http://www.w3.org/Graphics/SVG/1.1/DTD/svg11.dtd">
<!-- Uploaded to: SVG Repo, www.svgrepo.com, Transformed by: SVG Repo Mixer Tools -->
<svg fill="#ffffff" width="800px" height="800px" viewBox="-15 -15 80.00 80.00" version="1.2" baseProfile="tiny" xmlns="http://www.w3.org/2000/svg" overflow="inherit" stroke="#ffffff">
<g id="SVGRepo_bgCarrier" stroke-width="0">
<rect x="-15" y="-15" width="80.00" height="80.00" rx="40" fill="#ef4444" strokewidth="0"/>
</g>
<g id="SVGRepo_tracerCarrier" stroke-linecap="round" stroke-linejoin="round"/>
<g id="SVGRepo_iconCarrier">
<path d="M49 17c0-.55-.45-1-1-1h-13c-.55 0-1-.45-1-1v-13c0-.55-.45-1-1-1h-16c-.55 0-1 .45-1 1v13c0 .55-.45 1-1 1h-13c-.55 0-1 .45-1 1v16c0 .55.45 1 1 1h13c.55 0 1 .45 1 1v13c0 .55.45 1 1 1h16c.55 0 1-.45 1-1v-13c0-.55.45-1 1-1h13c.55 0 1-.45 1-1v-16z"/>
</g>
</svg>