<!DOCTYPE svg PUBLIC "-//W3C//DTD SVG 1.1//EN" "http://www.w3.org/Graphics/SVG/1.1/DTD/svg11.dtd">
<!-- Uploaded to: SVG Repo, www.svgrepo.com, Transformed by: SVG Repo Mixer Tools -->
<svg fill="#ffffff" height="800px" width="800px" version="1.1" id="Layer_1" xmlns="http://www.w3.org/2000/svg" xmlns:xlink="http://www.w3.org/1999/xlink" viewBox="-153.6 -153.6 819.20 819.20" xml:space="preserve" stroke="#ffffff">
<g id="SVGRepo_bgCarrier" stroke-width="0">
<rect x="-153.6" y="-153.6" width="819.20" height="819.20" rx="409.6" fill="#fbbf24" strokewidth="0"/>
</g>
<g id="SVGRepo_tracerCarrier" stroke-linecap="round" stroke-linejoin="round"/>
<g id="SVGRepo_iconCarrier"> <g> <g> <path d="M497.546,100.427c-0.12-1.821-0.958-3.522-2.331-4.725L394.289,7.237c-4.159-3.645-9.844-5.006-15.206-3.638 c-5.358,1.369-9.697,5.29-11.598,10.483l-63.121,172.37H175.569l-4.805-30.307c4.765,0.864,9.117,2.443,12.695,4.657 c9.177,5.681,21.226,3.873,28.29-4.48c5.788-6.845,15.796-11.969,26.771-13.708c7.514-1.193,15.042-0.774,21.581,1.185 c7.989,2.393,16.446-0.007,21.987-5.683c5.711-5.847,7.694-14.312,5.17-22.102c-9.144-28.172-26.697-52.309-50.763-69.8 c-24.066-17.493-52.44-26.739-82.057-26.739c-1.675,0-3.354,0.039-5.035,0.101l-0.861-5.427C147.089,5,138.499-1.242,129.35,0.21 c-9.148,1.45-15.39,10.042-13.939,19.191l0.851,5.369C89.58,32.309,65.601,47.648,47.561,68.979 c-21.378,25.276-33.141,57.341-33.12,90.286c0.005,8.177,4.506,15.616,11.756,19.417c6.98,3.656,15.725,3.408,22.661-1.393 c5.648-3.91,12.618-6.608,20.158-7.803c2.799-0.443,5.617-0.669,8.379-0.669c8.096,0,15.668,1.927,21.318,5.425 c9.194,5.693,21.233,3.853,28.287-4.487c2.723-3.218,6.387-6.049,10.637-8.333l3.968,25.031h-34.164 c-18.193,0-33.794,12.972-37.094,30.844c-14.093,76.239,0.58,161.426,46.556,223.097c34.423,46.177,80.656,71.607,130.178,71.607 c49.523,0,95.755-25.43,130.179-71.607c45.969-61.662,60.651-146.847,46.556-223.097c-3.302-17.873-18.903-30.844-37.096-30.844 h-46.633l50.487-137.869l82.529,72.341c2.859,2.506,7.207,2.219,9.713-0.638l13.036-14.871 C497.057,104.043,497.665,102.248,497.546,100.427z M108.014,141.361c-9.214-4.001-19.635-6.087-30.62-6.087 c-4.515,0-9.101,0.365-13.632,1.082c-4.809,0.763-9.511,1.916-14.031,3.434c7.976-43.659,42.495-78.242,87.913-85.443 c5.563-0.882,11.212-1.328,16.793-1.328c39.501,0,74.918,21.622,93.216,55.387c-4.773-0.037-9.605,0.321-14.386,1.079 c-15.49,2.455-29.792,9.03-40.501,18.44c-9.214-4.001-19.634-6.087-30.618-6.087c-4.515,0-9.103,0.365-13.632,1.082 C133.023,125.377,118.722,131.951,108.014,141.361z M386.721,219.996c2.049,0,3.74,1.396,4.11,3.397 c12.382,66.996-0.054,142.747-40.463,196.953c-27.936,37.474-64.618,58.112-103.287,58.112 c-38.668,0-75.349-20.638-103.286-58.112c-40.471-54.289-52.821-130.087-40.463-196.954c0.363-1.968,2.092-3.396,4.11-3.396 C165.12,219.996,290.884,219.996,386.721,219.996z"/> </g> </g> </g>
</svg>